<svg width="19" height="16" viewBox="0 0 19 16" fill="none" xmlns="http://www.w3.org/2000/svg">
<path id="Arrow 1" d="M1 7C0.447715 7 0 7.44772 0 8C0 8.55228 0.447715 9 1 9V7ZM18.6777 8.70711C19.0682 8.31658 19.0682 7.68342 18.6777 7.29289L12.3137 0.928932C11.9232 0.538408 11.29 0.538408 10.8995 0.928932C10.509 1.31946 10.509 1.95262 10.8995 2.34315L16.5564 8L10.8995 13.6569C10.509 14.0474 10.509 14.6805 10.8995 15.0711C11.29 15.4616 11.9232 15.4616 12.3137 15.0711L18.6777 8.70711ZM1 9H17.9706V7L1 7V9Z" fill="white"/>
</svg>
